<?xml version="1.0" standalone="no"?>
<!DOCTYPE svg PUBLIC "-//W3C//DTD SVG 20010904//EN"
 "http://www.w3.org/TR/2001/REC-SVG-20010904/DTD/svg10.dtd">
<svg version="1.0" xmlns="http://www.w3.org/2000/svg"
 width="340.000000pt" height="340.000000pt" viewBox="0 0 340.000000 340.000000"
 preserveAspectRatio="xMidYMid meet">

<g transform="translate(0.000000,340.000000) scale(0.100000,-0.100000)"
fill="#000000" stroke="none">
<path d="M370 2561 c-53 -29 -69 -50 -198 -271 -159 -274 -165 -285 -165 -345
0 -60 5 -70 165 -345 67 -116 134 -218 153 -236 54 -48 90 -54 325 -54 l213 0
-25 33 -26 32 -198 5 c-172 4 -203 8 -226 23 -28 19 -281 441 -304 506 -8 23
-8 45 -2 67 5 18 69 135 142 261 97 166 142 234 167 251 33 23 35 23 330 20
l298 -3 31 -30 30 -29 27 26 26 26 -29 27 c-57 53 -72 55 -398 55 -274 -1
-304 -3 -336 -19z"/>
<path d="M1110 2455 l-22 -24 87 -151 88 -151 23 22 c13 12 24 26 24 31 0 11
-160 287 -170 293 -4 2 -17 -6 -30 -20z"/>
<path d="M1740 2305 l0 -35 87 0 87 0 -34 35 c-30 31 -39 35 -87 35 l-53 0 0
-35z"/>
<path d="M1893 2313 l27 -28 27 28 28 27 -55 0 -55 0 28 -27z"/>
<path d="M1957 2292 l-47 -48 0 -73 c0 -65 2 -72 15 -61 21 17 32 4 18 -19
-10 -15 -8 -22 8 -37 19 -17 19 -15 19 99 l0 117 55 0 c47 0 59 4 85 30 16 16
30 32 30 35 0 3 -31 5 -68 5 -68 0 -68 0 -115 -48z"/>
<path d="M2280 2184 c-48 -21 -87 -60 -101 -101 -6 -19 -9 -36 -7 -38 2 -3 40
31 83 75 44 44 75 80 70 80 -6 -1 -26 -8 -45 -16z"/>
<path d="M2327 2162 l-37 -38 58 4 c95 7 142 -27 142 -103 0 -97 -152 -142
-224 -66 -24 25 -28 36 -25 75 l4 46 -30 -30 -30 -30 75 -76 c41 -41 82 -79
91 -84 11 -6 36 -4 69 4 164 43 187 248 35 317 -61 28 -86 24 -128 -19z"/>
<path d="M3131 2188 c-83 -28 -133 -118 -110 -200 31 -116 170 -167 291 -107
59 30 83 73 83 149 0 77 -23 117 -82 146 -46 21 -135 27 -182 12z m167 -83
c57 -48 50 -117 -17 -162 -39 -26 -86 -29 -135 -9 -74 31 -88 106 -32 162 31
31 39 34 94 34 50 0 66 -4 90 -25z"/>
<path d="M2630 2156 l0 -34 66 -4 c36 -1 70 2 77 7 6 6 4 1 -6 -11 -12 -15
-17 -39 -17 -89 0 -58 4 -73 27 -104 l26 -36 -26 24 -27 24 0 -36 c0 -34 2
-37 30 -37 l30 0 0 130 0 130 65 0 65 0 0 35 0 35 -155 0 -155 0 0 -34z"/>
<path d="M337 2173 c-17 -16 -5 -33 23 -33 l30 0 0 -215 0 -215 29 0 c61 0 61
-1 61 159 0 121 4 153 19 187 25 54 58 84 93 84 36 0 78 -40 78 -75 0 -32 7
-32 42 2 34 33 35 53 4 82 -63 59 -193 28 -227 -54 -6 -16 -8 -14 -8 13 -2 60
-15 72 -80 72 -32 0 -61 -3 -64 -7z"/>
<path d="M777 2110 c-39 -38 -74 -70 -79 -70 -18 0 -6 -28 26 -59 l35 -34 6
39 c12 77 17 88 50 121 43 43 87 43 119 0 18 -24 22 -47 26 -158 l5 -130 44
45 44 44 -5 89 c-7 139 -43 183 -149 183 -50 0 -53 -2 -122 -70z"/>
<path d="M1300 2135 l-24 -25 37 -69 c38 -71 45 -107 26 -143 -9 -16 -7 -24
12 -44 12 -13 26 -24 30 -24 12 0 39 79 39 114 0 44 -16 88 -58 158 -19 32
-35 58 -36 58 -2 0 -13 -11 -26 -25z"/>
<path d="M1910 1952 l0 -92 30 0 30 0 0 63 c0 57 -3 66 -30 92 l-30 29 0 -92z"/>
<path d="M675 1998 c-3 -8 -4 -75 -3 -149 l3 -134 43 -3 42 -3 0 108 -1 108
-39 44 c-28 31 -41 39 -45 29z"/>
<path d="M2170 2000 c1 -33 47 -96 88 -118 70 -39 66 -21 -13 58 -41 41 -75
68 -75 60z"/>
<path d="M1003 1838 c-46 -47 -49 -54 -32 -92 22 -47 139 -60 139 -15 0 12 -7
19 -19 19 -28 0 -39 20 -43 78 l-3 53 -42 -43z"/>
<path d="M1250 1739 c-40 -68 -80 -136 -88 -151 -13 -22 -13 -29 -2 -43 12
-14 18 -12 57 27 24 23 69 87 100 141 l56 99 -25 25 -26 25 -72 -123z"/>
<path d="M1747 1583 c-20 -19 9 -23 179 -23 165 0 185 2 174 15 -10 12 -43 15
-180 15 -91 0 -170 -3 -173 -7z"/>
<path d="M2130 1575 c7 -8 27 -15 45 -15 18 0 38 7 45 15 11 13 5 15 -45 15
-50 0 -56 -2 -45 -15z"/>
<path d="M2240 1575 c-11 -13 10 -15 180 -15 170 0 191 2 180 15 -10 12 -43
15 -180 15 -137 0 -170 -3 -180 -15z"/>
<path d="M2630 1575 c7 -8 27 -15 45 -15 18 0 38 7 45 15 11 13 5 15 -45 15
-50 0 -56 -2 -45 -15z"/>
<path d="M2740 1575 c-11 -13 12 -15 199 -15 181 0 211 2 211 15 0 13 -29 15
-199 15 -164 0 -201 -3 -211 -15z"/>
<path d="M1101 1433 c-61 -64 -109 -119 -107 -121 11 -11 97 40 125 74 32 39
107 164 97 164 -2 0 -54 -53 -115 -117z"/>
<path d="M1099 1483 c-51 -85 -73 -97 -181 -102 l-90 -3 33 -34 c57 -58 77
-51 198 70 59 60 101 109 97 115 -13 20 -23 12 -57 -46z"/>
<path d="M1730 1195 c0 -52 4 -95 8 -95 18 0 32 26 32 58 0 33 1 34 30 29 32
-7 51 10 29 24 -8 5 -24 9 -36 9 -16 0 -23 6 -23 20 0 17 7 20 40 20 29 0 40
4 40 15 0 12 -13 15 -60 15 l-60 0 0 -95z"/>
<path d="M2050 1216 c0 -53 4 -77 15 -86 13 -11 15 -2 15 74 0 70 -3 86 -15
86 -12 0 -15 -15 -15 -74z"/>
<path d="M2157 1270 c-56 -44 -41 -151 22 -165 36 -8 71 1 71 19 0 8 -10 11
-28 8 -38 -5 -62 20 -62 63 0 44 25 69 61 61 34 -6 49 19 16 28 -37 10 -53 7
-80 -14z"/>
<path d="M2270 1275 c0 -9 9 -15 25 -15 22 0 25 -4 25 -35 0 -19 4 -35 8 -35
15 0 32 24 32 47 0 18 6 23 26 23 22 0 25 2 14 15 -8 10 -31 15 -71 15 -46 0
-59 -3 -59 -15z"/>
<path d="M2443 1274 c-3 -9 3 -25 16 -37 l21 -21 0 22 c0 19 5 23 23 20 27 -4
37 -45 13 -54 -20 -8 -11 -24 14 -24 20 0 40 27 40 54 0 9 -9 25 -20 36 -25
25 -98 28 -107 4z"/>
<path d="M2670 1286 c0 -2 7 -9 15 -16 13 -11 14 -10 9 4 -5 14 -24 23 -24 12z"/>
<path d="M2840 1275 c-10 -13 -9 -15 9 -15 16 0 21 -6 21 -25 0 -19 -5 -25
-23 -25 -13 0 -28 5 -34 11 -8 8 -13 7 -18 -1 -4 -6 -3 -16 3 -22 8 -8 6 -17
-4 -33 -20 -31 -26 -65 -10 -65 7 0 21 18 32 40 26 55 54 55 54 0 0 -29 4 -40
15 -40 12 0 15 17 15 95 0 93 0 95 -24 95 -13 0 -29 -7 -36 -15z m-20 -118 c0
-2 -10 -12 -22 -23 l-23 -19 19 23 c18 21 26 27 26 19z"/>
<path d="M1907 1243 c-4 -3 -7 -37 -7 -75 l0 -68 38 0 c40 0 82 23 82 44 0 15
-62 76 -78 76 -7 0 -12 7 -12 15 0 16 -12 20 -23 8z m68 -83 c0 -18 -6 -26
-22 -28 -20 -3 -23 1 -23 28 0 27 3 31 23 28 16 -2 22 -10 22 -28z"/>
<path d="M2440 1167 c0 -60 2 -67 20 -67 16 0 20 7 20 34 0 19 5 36 10 38 6 2
-3 16 -20 33 l-30 29 0 -67z"/>
<path d="M2607 1177 c-9 -30 -17 -59 -17 -65 0 -23 28 -12 34 13 5 21 12 25
41 25 29 0 37 -5 45 -25 5 -14 16 -25 25 -25 18 0 19 7 4 49 -10 28 -15 31
-53 31 -37 0 -42 3 -42 21 2 43 -21 28 -37 -24z"/>
<path d="M2336 1168 c-23 -33 -21 -68 4 -68 17 0 20 7 20 45 0 25 -2 45 -4 45
-3 0 -12 -10 -20 -22z"/>
<path d="M1815 1141 c-34 -36 -36 -41 -18 -41 32 0 66 32 61 58 -3 22 -5 21
-43 -17z"/>
<path d="M2050 1110 c0 -5 5 -10 11 -10 5 0 7 5 4 10 -3 6 -8 10 -11 10 -2 0
-4 -4 -4 -10z"/>
<path d="M1795 1048 c-18 -61 -26 -121 -17 -130 13 -13 14 -10 35 62 8 28 19
46 30 48 15 3 17 -6 17 -62 l0 -66 -31 0 c-27 0 -30 -2 -19 -15 7 -8 28 -15
46 -15 30 0 34 -3 34 -25 0 -16 6 -25 15 -25 11 0 15 11 15 40 0 22 -4 40 -10
40 -6 0 -10 33 -10 80 l0 80 -50 0 c-32 0 -52 -5 -55 -12z"/>
<path d="M2000 1051 c-15 -4 -32 -21 -43 -43 -23 -46 -13 -93 26 -122 25 -18
29 -19 43 -4 14 14 13 16 -10 22 -47 12 -47 97 -1 118 33 15 65 -12 65 -56 l0
-30 20 20 c17 16 19 25 11 45 -16 44 -61 64 -111 50z"/>
<path d="M2210 1034 c-24 -26 -24 -26 -3 -15 13 6 34 9 48 5 19 -5 25 -2 25
10 0 9 -4 16 -9 16 -5 0 -16 2 -23 5 -8 3 -25 -6 -38 -21z"/>
<path d="M2300 1045 c0 -9 9 -15 25 -15 25 0 25 -1 25 -80 0 -73 2 -80 20 -80
18 0 20 7 20 80 0 79 0 80 25 80 16 0 25 6 25 15 0 12 -14 15 -70 15 -56 0
-70 -3 -70 -15z"/>
<path d="M2482 973 c-18 -49 -32 -92 -32 -96 0 -18 32 -4 40 18 8 20 16 25 44
25 53 0 62 20 39 83 -14 36 -26 53 -40 55 -17 3 -25 -11 -51 -85z m66 10 c10
-31 10 -33 -14 -33 -27 0 -29 6 -14 46 12 31 13 30 28 -13z"/>
<path d="M2650 1051 c0 -19 22 -23 38 -7 15 15 14 16 -11 16 -15 0 -27 -4 -27
-9z"/>
<path d="M2820 965 c0 -78 3 -95 15 -95 11 0 15 12 15 48 l1 47 19 -23 c11
-13 28 -35 38 -49 11 -14 26 -24 36 -22 15 4 13 9 -13 44 -17 22 -31 44 -31
48 0 5 14 28 30 53 27 38 28 44 13 44 -10 -1 -34 -22 -53 -48 l-35 -47 -3 48
c-2 33 -7 47 -18 47 -11 0 -14 -19 -14 -95z"/>
<path d="M3005 978 c-16 -46 -30 -89 -33 -95 -2 -8 4 -13 16 -13 13 0 22 9 26
25 5 21 12 25 41 25 29 0 36 -4 41 -25 4 -16 13 -25 26 -25 12 0 18 5 16 13
-3 6 -18 49 -34 94 -24 68 -33 83 -50 83 -17 0 -26 -15 -49 -82z m69 -5 c6
-20 4 -23 -18 -23 -30 0 -29 -2 -15 40 12 34 19 30 33 -17z"/>
<path d="M2705 1041 c-3 -5 4 -12 15 -16 21 -7 27 -30 9 -40 -7 -5 -6 -12 4
-23 21 -25 32 -46 20 -39 -6 4 -13 0 -17 -8 -3 -8 -17 -15 -31 -15 -20 0 -25
5 -25 25 0 19 5 25 21 25 21 0 20 2 -6 26 -27 25 -29 25 -42 8 -7 -10 -13 -40
-13 -66 l0 -49 57 3 c51 3 59 6 73 30 13 25 13 29 -2 44 -14 14 -15 20 -3 38
19 30 3 66 -29 66 -14 0 -27 -4 -31 -9z"/>
<path d="M2162 988 c-20 -20 -14 -67 13 -94 20 -19 34 -24 62 -22 48 4 57 28
11 28 -43 0 -58 15 -58 56 0 37 -11 49 -28 32z"/>
<path d="M2075 900 c-32 -33 -17 -42 15 -10 17 17 27 40 17 40 -2 0 -16 -13
-32 -30z"/>
<path d="M2581 916 c-15 -18 -3 -46 20 -46 16 0 17 4 8 30 -13 34 -13 35 -28
16z"/>
<path d="M1743 903 c-8 -2 -13 -22 -13 -44 0 -32 3 -39 20 -39 15 0 20 7 20
25 0 17 6 25 17 25 14 0 14 2 -2 20 -19 21 -22 22 -42 13z"/>
</g>
</svg>
